<?xml version="1.0" standalone="no"?>
<!DOCTYPE svg PUBLIC "-//W3C//DTD SVG 20010904//EN"
 "http://www.w3.org/TR/2001/REC-SVG-20010904/DTD/svg10.dtd">
<svg version="1.0" xmlns="http://www.w3.org/2000/svg"
 width="512.000000pt" height="512.000000pt" viewBox="0 0 512.000000 512.000000"
 preserveAspectRatio="xMidYMid meet">
<metadata>
Created by potrace 1.11, written by Peter Selinger 2001-2013
</metadata>
<g transform="translate(0.000000,512.000000) scale(0.100000,-0.100000)"
fill="#000000" stroke="none">
<path d="M2417 4944 c-1 -1 -60 -5 -132 -8 -71 -3 -146 -8 -165 -10 -19 -3
-62 -7 -95 -11 -58 -6 -103 -12 -155 -20 -14 -3 -43 -7 -65 -10 -22 -4 -60
-11 -85 -17 -25 -5 -54 -12 -65 -14 -203 -41 -434 -122 -630 -221 -60 -31
-120 -61 -132 -67 -31 -15 -56 -62 -49 -91 5 -21 -4 -32 -74 -85 -76 -57 -82
-59 -103 -45 -43 28 -86 0 -217 -141 -64 -70 -101 -116 -152 -193 -21 -31 -41
-61 -45 -67 -52 -71 -181 -355 -198 -434 -2 -8 -10 -42 -18 -75 -28 -106 -29
-118 -34 -251 -5 -148 1 -171 62 -242 37 -42 92 -74 151 -86 30 -7 31 -9 33
-59 1 -48 9 -87 26 -128 4 -12 -1 -18 -18 -23 -33 -8 -98 -73 -122 -121 -30
-61 -30 -155 1 -213 21 -40 23 -50 13 -74 -6 -15 -15 -28 -19 -28 -3 0 -7 -6
-8 -12 0 -7 -8 -33 -17 -58 -40 -106 3 -248 97 -319 l47 -36 0 -112 c-1 -109
-2 -113 -22 -113 -35 0 -119 -45 -159 -84 -61 -61 -71 -102 -66 -268 4 -117
10 -159 32 -231 44 -148 136 -319 223 -418 62 -70 195 -189 211 -189 6 0 15
-6 19 -12 32 -50 305 -159 458 -184 28 -4 743 -9 1589 -9 1589 -1 1612 -1
1751 38 429 121 750 486 813 927 4 25 7 88 7 140 0 80 -4 101 -23 135 -43 78
-120 139 -191 152 -14 2 -28 7 -31 9 -8 9 -8 224 0 224 5 0 28 20 53 44 65 63
91 123 91 216 1 66 -3 84 -33 144 l-33 68 25 52 c21 42 25 63 23 118 -3 85
-38 146 -113 197 -42 28 -50 38 -43 51 13 23 21 76 22 128 0 23 3 42 6 43 107
12 209 96 238 195 20 71 13 185 -21 349 -10 45 -48 172 -67 221 -12 32 -23 61
-23 64 -1 3 -18 40 -38 82 -61 126 -122 225 -209 339 -72 94 -217 239 -308
307 -19 15 -37 30 -40 33 -14 18 -220 144 -306 187 -182 91 -268 124 -514 196
-57 16 -215 50 -285 60 -23 4 -52 9 -65 11 -71 15 -202 28 -390 41 -85 6 -408
12 -413 8z"/>
</g>
</svg>
